<?xml version="1.0" encoding="utf-8"?>
<!-- Generator: Adobe Illustrator 19.0.0, SVG Export Plug-In . SVG Version: 6.00 Build 0)  -->
<svg version="1.1" id="Layer_1" xmlns="http://www.w3.org/2000/svg" xmlns:xlink="http://www.w3.org/1999/xlink" x="0px" y="0px"
	 viewBox="1374.9 405.1 369.6 385.7" style="enable-background:new 1374.9 405.1 369.6 385.7;" xml:space="preserve">
<style type="text/css">
	.st0{fill:none;}
	.st1{fill:#020202;}
</style>
<g id="XMLID_14_">
	<path id="XMLID_15_" class="st0" d="M1674.9,479.7c-4.4,4-9.3,6.5-13.4,7.2c-0.5,0-1,0.1-1.5,0l-0.1,0.1c-0.4,0-0.8,0-1.1,0
		l-0.8,1.1c6.7,5.5,17,5.2,24-1.1c7.3-6.6,8.6-17.3,3.1-24.6c-0.4-0.5-0.8-1-1.2-1.5c-0.2-0.2-0.4-0.4-0.5-0.5
		c0.1,0.1,0.2,0.2,0.2,0.3c-0.7-0.7-1.5-1.4-2.3-2l-0.1,0.2c0.6,0.3,1,0.6,1.5,1.1C1686.2,463.8,1682.7,472.7,1674.9,479.7z"/>
	<path id="XMLID_34_" class="st0" d="M1638.8,523.9c-3.9,3-8.2,4.7-11.7,4.7l-0.9,1.1c5,3.4,11.9,3.4,17.1-0.7
		c6.4-4.9,7.7-13.9,2.9-20c-0.2-0.3-0.5-0.6-0.7-0.8C1648.4,511.8,1645.4,518.8,1638.8,523.9z"/>
	<path id="XMLID_35_" class="st0" d="M1482.6,704l41.2-52.2c-2-2.3-3.3-4.7-4-7.2c-5.7,8.6-18.1,26.4-38.8,54.7
		C1481.7,700.9,1482.2,702.4,1482.6,704z"/>
	<path id="XMLID_36_" class="st0" d="M1527.9,655.5l-44.5,56.1c-0.1,2.9-0.6,5.9-1.7,8.7c30.1-34.1,49.4-53,57.4-61.2
		C1535.1,659.1,1531.3,657.9,1527.9,655.5z"/>
	<path id="XMLID_37_" class="st0" d="M1528.9,629l-0.1,0.2l0,0c-0.9,1.6-6.9,12.6,2.6,20l0,0l67.1-85.1c-5.2-4.5-6-12.4-1.7-17.8
		c0.8-1,1.8-1.9,2.8-2.6c4.5-3.3,10.7-3.3,15.1,0l10.3-13c-6.6-5.6-7.7-15.5-2.3-22.4s15.3-8.2,22.3-3l11.8-15
		c-1.6-1.4-2.9-2.8-3.8-4.2c-5.9-7.4-6.2-18.1-0.2-25.9c4.1-5.4,10.3-8.2,16.6-8.2c4.9-0.3,10,1.1,14.3,4.3l4.5-5.7l28.7-36.1
		c-0.1,0-0.1,0-0.2,0l0.2-0.2l0,0c-6.2-1-12-1.7-17.6-1.9c-20.8-1.3-37.1,3.9-60,28.6c-4.2,4.5-8.4,11.3-13.1,17.2l-33.8,58.3
		L1528.9,629z"/>
	<path id="XMLID_39_" class="st0" d="M1633.3,580.9c1.2,3.4,9.6,29.1-12,58.6l-72.5,53.1c0,0,6.5-23.9,1.8-36.4l0.3-0.3
		c-0.6,0.3-1.3,0.6-1.9,0.9l-2.8,1.6c-1.3,1.1-13.4,9.9-63.5,68c3.2,2.3,6.4,4.8,9.7,7.3c0.7,0.6,1.4,1.1,2.1,1.7
		c6.5-0.6,13.2,1.2,18.7,5.6c2.4,1.9,4.4,4.1,5.9,6.6c5.4-4.1,12.3-5.6,18.8-4.3c0.2-1,0.7-2.1,1.4-3c2.3-2.9,6.5-3.5,9.6-1.5
		c1-1.8,2.3-3.6,4-5.1c6.8-6.6,17.2-8.1,25.5-3.9c2.9-1.9,6.6-2.4,10.2-1.5c1.1-7.1,4-14.2,8.9-20.4c12.8-16.2,34.3-20.9,50-11.5
		c2.5-1.3,5.4-1.2,7.6,0.5c0.5,0.4,0.9,0.9,1.3,1.4c0.2-0.3,0.4-0.6,0.7-0.9c2.2-2.8,5-4.8,7.7-5.9c-0.1-4.1,1.1-8.3,3.9-11.8
		c4.5-5.7,11.8-8,18.4-6.4c0.2-0.4,0.4-0.7,0.7-1.1c1.9-2.4,5.3-2.8,7.6-1c1.1,0.8,1.7,2,1.9,3.3c0.6-0.3,1.3-0.5,1.9-0.6
		c0.2-0.9,0.6-1.8,1.2-2.6c1.6-2,4.1-2.8,6.2-2.1c21.2-48.5,17.6-103.9-8.9-148L1633.3,580.9z"/>
	<path id="XMLID_42_" class="st0" d="M1448.4,674.5c-1.1,1.4-2.4,2.7-3.7,3.9c0.4,0.8,0.6,1.7,0.5,2.9c0.2,0.9,0.3,1.8,0.2,2.7
		c8.9-3.2,19.3-1.9,27.3,4.4c2.2,1.7,4.1,3.7,5.6,5.9c26.5-37.1,37.2-55.2,41.2-62.4c-13.2-1.6-28.9,0.3-28.9,0.3l28.9-72.8
		c25.4-29.9,54.6-25.3,54.6-25.3l44.6-78.8c-58.2-21.8-126.1-7.5-171.8,39c1,3.7-0.8,9.6-4.9,14.8c-0.2,0.3-0.5,0.6-0.7,0.9
		c1.1,2.3,0.7,5.5-1.4,8.2c-2.1,2.6-5.1,3.9-7.6,3.3c-0.1,1.9-0.8,3.7-2,5.3c-0.7,0.9-1.5,1.6-2.4,2.1c0.7,3.6-0.1,7.5-2.6,10.6
		c-0.3,0.4-0.6,0.7-0.9,1c1.2,2,1,4.7-0.6,6.8c-0.7,0.9-1.7,1.6-2.7,2c1.4,0.4,2.7,1,3.9,1.9c3.9,3.1,5.1,8.5,3.1,13.1
		c1,0.3,1.9,0.7,2.7,1.3c5.1,4,3.8,14.1-2.8,22.5c-1.3,1.6-2.6,3-4.1,4.3c-0.2,0.6-0.4,1.2-0.7,1.7c0.1,0.1,0.2,0.2,0.4,0.3
		c4.9,3.8,4.8,12-0.1,18.3c-0.4,0.4-0.7,0.9-1.1,1.3c1.4,2.2,2.5,4.4,3.5,6.8c5,1.3,10,3.7,14.4,7.2
		C1455.4,640,1459.1,660.9,1448.4,674.5z"/>
	<path id="XMLID_46_" class="st0" d="M1559.9,679.8c0,0,0.1,0,0.2-0.1L1559.9,679.8z"/>
	<path id="XMLID_50_" class="st0" d="M1626,611.3l-61.4,60.6c0.1,4.1-3.7,7.2-4.5,7.8l53.7-38.9C1627,624.2,1626,611.3,1626,611.3z"
		/>
	<path id="XMLID_51_" class="st0" d="M1609.2,557.8c-4.2,3.2-8.7,4.8-11.1,4.1l0,0c3.6,3.7,9.9,3.9,14.6,0.4
		c4.8-3.7,6.2-10,3.4-14.5C1616.4,550.2,1613.6,554.4,1609.2,557.8z"/>
	<path id="XMLID_54_" class="st1" d="M1712.4,503.3c11.7-17.3,18.1-32.1,19.7-46c1.9-16.1-2.2-30.3-9.5-47.8l-0.7-1.8l-1.9-0.3
		c-18.8-3-33.4-3.8-48.7,1.9c-12.7,4.7-25.2,13.8-38.7,28.3c-86.8-37.5-194-3.9-239.8,91.1c-30.4,63.1-21.5,138.5,22.7,192.7
		c87,106.6,251.4,87.2,311.2-36.7C1755,625.9,1749.2,556.4,1712.4,503.3z M1639.2,440.7c22.9-24.6,39.2-29.9,60-28.6
		c5.6,0.2,11.5,1,17.6,1.9l0,0l-0.2,0.2c0.1,0,0.1,0,0.2,0l-28.7,36.1l-4.5,5.7c-4.3-3.2-9.3-4.6-14.3-4.3
		c-6.3,0.1-12.5,2.9-16.6,8.2c-6,7.8-5.7,18.5,0.2,25.9c0.9,1.5,2.1,2.9,3.8,4.2l-11.8,15c-7-5.1-16.9-3.9-22.3,3
		s-4.4,16.8,2.3,22.4l-10.3,13c-4.4-3.2-10.6-3.3-15.1,0c-1,0.7-2,1.6-2.8,2.6c-4.3,5.5-3.5,13.3,1.7,17.8l-67.1,85.1l0,0
		c-9.4-7.4-3.5-18.4-2.6-20l0,0l0.1-0.2l63.5-112.9l33.8-58.3C1630.8,452,1635,445.2,1639.2,440.7z M1682.6,459.9
		c-0.4-0.5-0.9-0.8-1.5-1.1l0.1-0.2c0.8,0.6,1.6,1.3,2.3,2c-0.1-0.1-0.1-0.2-0.2-0.3c0.2,0.2,0.4,0.3,0.5,0.5c0.4,0.5,0.9,1,1.2,1.5
		c5.5,7.3,4.2,18-3.1,24.6c-7.1,6.3-17.3,6.6-24,1.1l0.8-1.1c0.4,0,0.7,0,1.1,0l0.1-0.1c0.5,0,1,0,1.5,0c4-0.7,8.9-3.2,13.4-7.2
		C1682.7,472.7,1686.2,463.8,1682.6,459.9z M1645.7,508.2c0.2,0.3,0.5,0.5,0.7,0.8c4.7,6.1,3.4,15.1-2.9,20
		c-5.2,4-12.2,4.1-17.1,0.7l0.9-1.1c3.4-0.1,7.7-1.7,11.7-4.7C1645.4,518.8,1648.4,511.8,1645.7,508.2z M1519.8,644.7
		c0.7,2.5,2,4.9,4,7.2l-41.2,52.2c-0.4-1.6-0.9-3.2-1.6-4.7C1501.7,671.1,1514.1,653.3,1519.8,644.7z M1483.4,711.6l44.5-56.1
		c3.4,2.4,7.2,3.6,11.2,3.6c-8,8.1-27.3,27.1-57.4,61.2C1482.7,717.5,1483.3,714.5,1483.4,711.6z M1560,679.7
		c0.9-0.6,4.7-3.7,4.5-7.8l61.4-60.6c0,0,1.1,12.9-12.2,29.5L1560,679.7c-0.1,0.1-0.2,0.1-0.2,0.1L1560,679.7z M1616,547.8
		c2.8,4.5,1.4,10.8-3.4,14.5c-4.7,3.6-11,3.3-14.6-0.4l0,0c2.4,0.7,6.9-0.8,11.1-4.1C1613.6,554.4,1616.4,550.2,1616,547.8z
		 M1425.7,620.8c-0.9-2.3-2.1-4.6-3.5-6.8c0.4-0.4,0.8-0.8,1.1-1.3c4.9-6.3,5-14.4,0.1-18.3c-0.1-0.1-0.2-0.2-0.4-0.3
		c0.3-0.6,0.5-1.2,0.7-1.7c1.4-1.2,2.8-2.7,4.1-4.3c6.7-8.4,7.9-18.5,2.8-22.5c-0.8-0.6-1.7-1.1-2.7-1.3c1.9-4.6,0.8-10-3.1-13.1
		c-1.2-0.9-2.5-1.6-3.9-1.9c1-0.4,1.9-1.1,2.7-2c1.7-2.1,1.8-4.8,0.6-6.8c0.3-0.3,0.6-0.7,0.9-1c2.5-3.1,3.3-7,2.6-10.6
		c0.9-0.6,1.7-1.3,2.4-2.1c1.2-1.6,1.9-3.4,2-5.3c2.5,0.6,5.5-0.7,7.6-3.3s2.6-5.9,1.4-8.2c0.2-0.3,0.5-0.6,0.7-0.9
		c4.1-5.2,5.9-11,4.9-14.8c45.7-46.5,113.6-60.8,171.8-39L1574,534c0,0-29.2-4.7-54.6,25.3l-28.9,72.8c0,0,15.7-1.9,28.9-0.3
		c-4,7.2-14.7,25.3-41.2,62.4c-1.5-2.2-3.4-4.2-5.6-5.9c-8-6.3-18.3-7.6-27.3-4.4c0-0.9,0-1.8-0.2-2.7c0.1-1.1-0.1-2.1-0.5-2.9
		c1.3-1.2,2.6-2.4,3.7-3.9c10.8-13.6,7.1-34.5-8.2-46.6C1435.7,624.4,1430.7,622.1,1425.7,620.8z M1706.5,669.1
		c-2.1-0.7-4.6,0.1-6.2,2.1c-0.6,0.8-1,1.7-1.2,2.6c-0.7,0.1-1.3,0.3-1.9,0.6c-0.2-1.3-0.9-2.4-1.9-3.3c-2.3-1.8-5.7-1.4-7.6,1
		c-0.3,0.3-0.5,0.7-0.7,1.1c-6.7-1.6-13.9,0.7-18.4,6.4c-2.8,3.5-4,7.7-3.9,11.8c-2.7,1-5.4,3-7.7,5.9c-0.2,0.3-0.4,0.6-0.7,0.9
		c-0.4-0.5-0.8-1-1.3-1.4c-2.1-1.7-5.1-1.8-7.6-0.5c-15.7-9.3-37.2-4.6-50,11.5c-4.9,6.2-7.9,13.3-8.9,20.4
		c-3.5-0.9-7.2-0.4-10.2,1.5c-8.3-4.2-18.7-2.7-25.5,3.9c-1.6,1.6-2.9,3.3-4,5.1c-3.1-2.1-7.3-1.5-9.6,1.5c-0.7,0.9-1.2,1.9-1.4,3
		c-6.5-1.3-13.4,0.2-18.8,4.3c-1.6-2.4-3.5-4.7-5.9-6.6c-5.5-4.3-12.2-6.1-18.7-5.6c-0.7-0.6-1.4-1.1-2.1-1.7
		c-3.3-2.6-6.5-5-9.7-7.3c50.1-58,62.2-66.9,63.5-68l2.8-1.6c0.7-0.3,1.3-0.6,1.9-0.9l-0.3,0.3c4.7,12.5-1.8,36.4-1.8,36.4
		l72.4-53.2c21.6-29.5,13.3-55.2,12-58.6l64.4-59.8C1724.1,565.2,1727.8,620.6,1706.5,669.1z"/>
</g>
</svg>
